<mxfile host="app.diagrams.net" agent="Mozilla/5.0 (Macintosh; Intel Mac OS X 10_15_7) AppleWebKit/605.1.15 (KHTML, like Gecko) Version/17.6 Safari/605.1.15" version="25.0.1">
  <diagram name="Page-1" id="gcOh2L13ghurHqlArtQZ">
    <mxGraphModel dx="1195" dy="689" grid="1" gridSize="10" guides="1" tooltips="1" connect="1" arrows="1" fold="1" page="1" pageScale="1" pageWidth="827" pageHeight="1169" background="#ffffff" math="0" shadow="0">
      <root>
        <mxCell id="0" />
        <mxCell id="1" parent="0" />
        <mxCell id="VRNMHvbQ2h5_KSJw3uvR-1" value="" style="ellipse;whiteSpace=wrap;html=1;aspect=fixed;" parent="1" vertex="1">
          <mxGeometry x="280" y="200" width="40" height="40" as="geometry" />
        </mxCell>
        <mxCell id="VRNMHvbQ2h5_KSJw3uvR-2" value="Receive an integer" style="rounded=1;whiteSpace=wrap;html=1;" parent="1" vertex="1">
          <mxGeometry x="230" y="280" width="140" height="50" as="geometry" />
        </mxCell>
        <mxCell id="uvgIFms-rv46Gu-G6dfy-2" style="edgeStyle=orthogonalEdgeStyle;rounded=0;orthogonalLoop=1;jettySize=auto;html=1;exitX=0.5;exitY=1;exitDx=0;exitDy=0;entryX=0.5;entryY=0;entryDx=0;entryDy=0;" edge="1" parent="1" source="VRNMHvbQ2h5_KSJw3uvR-3" target="uvgIFms-rv46Gu-G6dfy-1">
          <mxGeometry relative="1" as="geometry" />
        </mxCell>
        <mxCell id="VRNMHvbQ2h5_KSJw3uvR-3" value="Initialise an even and odd counter variable equal to 0" style="rounded=1;whiteSpace=wrap;html=1;fontSize=12;" parent="1" vertex="1">
          <mxGeometry x="230" y="360" width="140" height="50" as="geometry" />
        </mxCell>
        <mxCell id="VRNMHvbQ2h5_KSJw3uvR-4" value="Return a tuple (even, odd)" style="rounded=1;whiteSpace=wrap;html=1;" parent="1" vertex="1">
          <mxGeometry x="230" y="520" width="140" height="50" as="geometry" />
        </mxCell>
        <mxCell id="VRNMHvbQ2h5_KSJw3uvR-5" value="" style="ellipse;whiteSpace=wrap;html=1;aspect=fixed;strokeWidth=3;" parent="1" vertex="1">
          <mxGeometry x="280" y="610" width="40" height="40" as="geometry" />
        </mxCell>
        <mxCell id="VRNMHvbQ2h5_KSJw3uvR-6" value="" style="endArrow=classic;html=1;rounded=0;exitX=0.5;exitY=1;exitDx=0;exitDy=0;entryX=0.5;entryY=0;entryDx=0;entryDy=0;" parent="1" source="VRNMHvbQ2h5_KSJw3uvR-1" target="VRNMHvbQ2h5_KSJw3uvR-2" edge="1">
          <mxGeometry width="50" height="50" relative="1" as="geometry">
            <mxPoint x="390" y="450" as="sourcePoint" />
            <mxPoint x="440" y="400" as="targetPoint" />
          </mxGeometry>
        </mxCell>
        <mxCell id="VRNMHvbQ2h5_KSJw3uvR-7" value="" style="endArrow=classic;html=1;rounded=0;exitX=0.5;exitY=1;exitDx=0;exitDy=0;entryX=0.5;entryY=0;entryDx=0;entryDy=0;" parent="1" source="VRNMHvbQ2h5_KSJw3uvR-2" target="VRNMHvbQ2h5_KSJw3uvR-3" edge="1">
          <mxGeometry width="50" height="50" relative="1" as="geometry">
            <mxPoint x="310" y="250" as="sourcePoint" />
            <mxPoint x="310" y="290" as="targetPoint" />
          </mxGeometry>
        </mxCell>
        <mxCell id="VRNMHvbQ2h5_KSJw3uvR-8" value="" style="endArrow=classic;html=1;rounded=0;exitX=0.5;exitY=1;exitDx=0;exitDy=0;entryX=0.5;entryY=0;entryDx=0;entryDy=0;" parent="1" target="VRNMHvbQ2h5_KSJw3uvR-4" edge="1">
          <mxGeometry width="50" height="50" relative="1" as="geometry">
            <mxPoint x="300" y="490" as="sourcePoint" />
            <mxPoint x="310" y="450" as="targetPoint" />
          </mxGeometry>
        </mxCell>
        <mxCell id="VRNMHvbQ2h5_KSJw3uvR-9" value="" style="endArrow=classic;html=1;rounded=0;exitX=0.5;exitY=1;exitDx=0;exitDy=0;entryX=0.5;entryY=0;entryDx=0;entryDy=0;" parent="1" source="VRNMHvbQ2h5_KSJw3uvR-4" target="VRNMHvbQ2h5_KSJw3uvR-5" edge="1">
          <mxGeometry width="50" height="50" relative="1" as="geometry">
            <mxPoint x="310" y="500" as="sourcePoint" />
            <mxPoint x="310" y="530" as="targetPoint" />
          </mxGeometry>
        </mxCell>
        <mxCell id="uvgIFms-rv46Gu-G6dfy-1" value="Iterate over the digits and increase the counter based on the digit&lt;div&gt;+&lt;/div&gt;" style="rounded=1;whiteSpace=wrap;html=1;fontSize=10;" vertex="1" parent="1">
          <mxGeometry x="230" y="440" width="140" height="50" as="geometry" />
        </mxCell>
      </root>
    </mxGraphModel>
  </diagram>
</mxfile>
